<?xml version="1.0" encoding="UTF-8"?>
<svg id="Calque_2" data-name="Calque 2" xmlns="http://www.w3.org/2000/svg" viewBox="0 0 240.24 191.56">
  <defs>
    <style>
      .cls-1 {
        fill: #a991c4;
      }

      .cls-1, .cls-2, .cls-3, .cls-4 {
        stroke: #1d1d1b;
        stroke-linecap: round;
        stroke-linejoin: round;
        stroke-width: 2px;
      }

      .cls-2 {
        fill: #8dd3f6;
      }

      .cls-3 {
        fill: #5997c4;
      }

      .cls-4 {
        fill: #ccbadb;
      }
    </style>
  </defs>
  <g id="Calque_6" data-name="Calque 6">
    <path class="cls-1" d="m223.9,86.13l-7.77,4.04,11.64-6.05c4.09-2.13,7.09-5.92,8.08-10.42.35-1.58.58-3.24.58-4.83,0-7.16-1.43-14.04-4.29-20.64-2.87-6.6-6.41-11.93-10.64-16-4.23-4.06-10.5-8.69-18.81-13.88L171.27,1l-15.19,8.47,16.57,9.6-5.38,89.54,35.42,21.67c5.06,3.16,9.41,5.59,13.12,7.33.75,4.02-.21,10.28-.21,10.28l15.87-8.72c3.1-1.6,5.54-4.32,6.58-7.66.79-2.56,1.19-5.67,1.19-9.3,0-12.9-5.12-24.92-15.34-36.08Zm-14.78,27.04c-1.9,1.66-6.52.19-13.87-4.4l-7.37-4.61v-27.06l9.04,5.65c6.23,3.89,3.71,7.6,5.61,11.44,1.9,3.84,4.03,5.57,4.03,8.96,0,3.66,4.46,8.37,2.56,10.02Zm0-45.26c-1.9,1.66-6.52.19-13.87-4.4l-7.37-4.61v-27.06l9.04,5.65c6.23,3.89,10.3,7.76,12.2,11.6,1.9,3.84,2.85,7.45,2.85,10.84,0,3.66-.95,6.32-2.85,7.98Z"/>
    <path class="cls-4" d="m172.65,19.07l13.11,8.04c8.31,5.19,14.58,9.82,18.81,13.88,4.23,4.07,7.78,9.4,10.64,16,2.86,6.6,4.29,13.48,4.29,20.64,0,12.52-4.94,17.47-14.82,14.85,11.75,11.83,17.63,24.66,17.63,38.49,0,7.27-1.6,12.41-4.79,15.42-3.19,3.01-7.13,3.88-11.82,2.62-4.69-1.26-11.34-4.58-19.95-9.96l-13.12-7.59V19.07Zm-.42,44.78l7.37,4.61c7.34,4.59,11.97,6.06,13.87,4.4,1.9-1.65,2.85-4.31,2.85-7.98,0-3.39-.95-7-2.85-10.84-1.9-3.84-5.97-7.7-12.2-11.6l-9.04-5.65v27.06Zm0,47.56l11.17,6.98c10.49,6.55,15.73,4.95,15.73-4.81,0-5.43-1.31-10.07-3.91-13.92-2.61-3.85-6.55-7.42-11.82-10.71l-11.17-6.98v29.44Z"/>
    <polygon class="cls-3" points="127.31 143.72 107.45 136.72 87.6 116.75 87.6 103.82 127.31 143.72"/>
    <polygon class="cls-3" points="135.49 133.4 152.42 143.2 152.8 82.6 135.87 120.29 135.49 133.4"/>
    <path class="cls-2" d="m172.65,19.07v112.39s-20.28,11.73-20.28,11.73l.38-57.74-25.32,58.37-17.9-18.03v-.02s-21.94-21.95-21.94-21.95v60.6c-.43,10.88-24.12,20.99-24.86,21.3h-.01c-2.16.87-5.12,2.16-8.8,3.19-3.24.9-7.05,1.61-11.37,1.64,1.91-.11,17.27-1.49,20.17-16.24v-91.77l24.87-14.37,32.99,33.1,31.78-70.5,20.29-11.7Z"/>
    <polygon class="cls-3" points="152.36 30.77 152.38 30.78 120.59 101.27 105.57 86.21 135.47 21.25 156.08 9.47 172.7 19.07 152.36 30.77"/>
    <path class="cls-4" d="m62.72,82.54v91.79c-.51,2.6-1.4,4.79-2.55,6.62-5.32,8.6-16.05,9.51-17.62,9.6-.13.01-.2.01-.2.01-6.38.03-13.9-1.41-22.41-5.79-14.94-10.19-22.6-29.91-17.22-49.63l16.01,9.27,3.59,2.07c-.43,0,.55,18.67,11.96,18.34,9.06-.33,8.18-13.5,8.18-13.5v-80.48l17.33,10.01,2.93,1.69Z"/>
    <polygon class="cls-3" points="62.77 82.54 42.5 70.84 67.35 56.51 87.64 68.18 62.77 82.54"/>
    <path class="cls-1" d="m34.28,164.82c-11.33.33-12.38-18.08-11.97-18.34l-3.58-2.07-16.01-9.27,16.74-9.82.57.32,7.66,4.35,11.66,6.73.3.18c-.27,0-.01,6.92,2.81,12.25v2.17s.88,13.17-8.18,13.5Z"/>
  </g>
</svg>